<?xml version="1.0" standalone="no"?>
<!DOCTYPE svg PUBLIC "-//W3C//DTD SVG 20010904//EN"
 "http://www.w3.org/TR/2001/REC-SVG-20010904/DTD/svg10.dtd">
<svg version="1.0" xmlns="http://www.w3.org/2000/svg"
 width="512.000000pt" height="512.000000pt" viewBox="0 0 512.000000 512.000000"
 preserveAspectRatio="xMidYMid meet">

<g transform="translate(0.000000,512.000000) scale(0.100000,-0.100000)"
fill="#000000" stroke="none">
<path d="M897 5024 c-266 -48 -502 -203 -653 -430 -62 -93 -94 -161 -132 -283
l-27 -86 0 -1680 0 -1680 23 -80 c102 -353 379 -620 738 -712 65 -17 177 -18
1729 -18 l1660 0 85 23 c105 29 252 97 334 156 71 51 198 180 244 248 52 76
120 226 144 318 l23 85 0 1655 0 1655 -23 89 c-42 168 -126 318 -250 448 -149
156 -335 256 -551 293 -122 22 -3225 21 -3344 -1z m1389 -1079 c90 -37 161
-124 196 -238 29 -98 22 -279 -16 -386 -45 -128 -91 -198 -194 -299 -52 -51
-92 -95 -89 -98 3 -3 46 11 97 31 50 20 96 35 101 33 6 -2 -26 -31 -72 -63
-241 -174 -362 -287 -446 -417 -118 -180 -155 -367 -118 -583 9 -48 14 -90 11
-92 -2 -2 -39 38 -81 89 -216 262 -384 585 -459 886 -27 106 -51 250 -44 257
2 2 28 -3 57 -12 51 -17 53 -17 94 6 23 12 59 45 79 72 21 26 57 58 80 70 45
23 96 23 273 -1 91 -12 151 -6 245 22 140 43 217 106 271 220 29 63 34 83 34
148 -1 85 -27 159 -74 204 -54 51 -147 43 -177 -16 -14 -28 -17 -29 -62 -22
-26 3 -48 8 -50 9 -2 2 0 20 4 41 9 47 83 125 134 141 52 16 165 15 206 -2z
m771 -9 c62 -29 113 -93 113 -141 0 -30 -3 -33 -40 -39 -38 -6 -43 -4 -79 34
-31 33 -45 40 -75 40 -70 0 -118 -48 -152 -150 -48 -146 40 -341 186 -415 99
-50 179 -69 285 -68 55 0 118 6 140 12 22 6 68 11 103 11 82 0 130 -25 181
-93 42 -55 86 -87 119 -87 11 0 39 7 62 15 24 8 45 13 48 11 6 -7 -17 -139
-44 -247 -58 -232 -157 -459 -293 -666 -79 -120 -236 -323 -250 -323 -5 0 -1
28 7 63 22 88 21 284 -1 367 -35 132 -116 274 -222 389 -47 51 -216 190 -335
275 -46 33 -79 61 -73 63 6 2 52 -13 102 -33 51 -20 94 -34 98 -31 3 3 -39 50
-94 104 -80 78 -108 114 -141 179 -99 194 -115 405 -43 560 61 129 152 194
275 194 54 0 84 -6 123 -24z m903 -1261 c-37 -420 -186 -798 -462 -1168 -113
-151 -387 -427 -547 -550 -114 -88 -268 -193 -349 -238 l-44 -24 -41 24 c-240
135 -556 391 -744 603 -391 441 -598 917 -618 1418 l-5 125 19 -115 c23 -143
33 -185 72 -308 188 -584 633 -1115 1251 -1489 l67 -41 101 62 c306 184 633
479 845 761 249 331 416 729 452 1076 6 58 9 66 11 34 2 -22 -1 -98 -8 -170z"/>
</g>
</svg>
